<svg width="20" height="23" viewBox="0 0 20 23" fill="none" xmlns="http://www.w3.org/2000/svg">
<path d="M17.0926 9.28954C17.5452 8.77227 17.1778 7.96274 16.4905 7.96274H14.3375C13.8957 7.96274 13.5375 7.60456 13.5375 7.16274V1.68867C13.5375 1.24684 13.1793 0.888672 12.7375 0.888672H7.26341C6.82159 0.888672 6.46341 1.24684 6.46341 1.68867V7.16274C6.46341 7.60456 6.10524 7.96274 5.66341 7.96274H3.51038C2.82306 7.96274 2.45572 8.77227 2.90832 9.28954L9.39839 16.7068C9.71711 17.071 10.2838 17.071 10.6025 16.7068L17.0926 9.28954ZM0.568359 20.5528C0.568359 20.111 0.926532 19.7528 1.36836 19.7528H18.6325C19.0744 19.7528 19.4325 20.111 19.4325 20.5528V21.3109C19.4325 21.7527 19.0744 22.1109 18.6325 22.1109H1.36836C0.92653 22.1109 0.568359 21.7527 0.568359 21.3109V20.5528Z" fill="#469CB7" fill-opacity="1"/>
</svg>
