<svg width="24" height="24" viewBox="0 0 24 24" fill="none" xmlns="http://www.w3.org/2000/svg">
<path fill-rule="evenodd" clip-rule="evenodd" d="M15.3839 7.11612C14.8957 6.62796 14.1043 6.62796 13.6161 7.11612C13.128 7.60427 13.128 8.39573 13.6161 8.88388L16.7322 12L13.6161 15.1161C13.128 15.6043 13.128 16.3957 13.6161 16.8839C14.1043 17.372 14.8957 17.372 15.3839 16.8839L18.5 13.7678L21.6161 16.8839C22.1043 17.372 22.8957 17.372 23.3839 16.8839C23.872 16.3957 23.872 15.6043 23.3839 15.1161L20.2678 12L23.3839 8.88388C23.872 8.39573 23.872 7.60427 23.3839 7.11612C22.8957 6.62796 22.1043 6.62796 21.6161 7.11612L18.5 10.2322L15.3839 7.11612Z" fill="#469CB7" fill-opacity="1"/>
<path d="M2.25293 8.4404V15.5593C2.25293 16.1116 2.70064 16.5593 3.25293 16.5593H5.762C6.02367 16.5593 6.27491 16.6619 6.46182 16.845L11.4879 21.7691C11.7411 22.0171 12.1679 21.8378 12.1679 21.4834L12.1681 2.51633C12.1681 2.16194 11.7413 1.98259 11.4881 2.2306L6.46204 7.15472C6.27512 7.33784 6.02388 7.4404 5.76221 7.4404H3.25293C2.70064 7.4404 2.25293 7.88812 2.25293 8.4404Z" fill="#469CB7" fill-opacity="1"/>
</svg>
