<svg width="36" height="50" viewBox="0 0 36 50" fill="none" xmlns="http://www.w3.org/2000/svg">
<path fill-rule="evenodd" clip-rule="evenodd" d="M26.8296 22.9408C26.8296 27.9023 22.8695 31.9372 18 31.9372C13.1305 31.9372 9.17038 27.9023 9.17038 22.9408V9.44637C9.17338 7.13442 10.0485 4.91212 11.6148 3.23926C13.1379 1.61253 15.2011 0.626431 17.3978 0.470332C17.5222 0.461491 17.6456 0.441518 17.7691 0.423651C17.8609 0.410366 17.9535 0.4034 18.0463 0.402832C22.8894 0.402832 26.8296 4.46017 26.8296 9.44637V22.9408ZM17.7923 49.5964C16.6878 49.5964 15.7923 48.701 15.7923 47.5964V42.3789C15.7923 41.3707 15.0378 40.5323 14.0552 40.3071C6.84546 38.6544 1.29955 32.5852 0.452816 25.1044C0.328586 24.0068 1.23594 23.1075 2.34051 23.1075H2.75532C3.85989 23.1075 4.73943 24.0083 4.90486 25.1004C5.86852 31.4623 11.3727 36.352 17.9997 36.352C24.6268 36.352 30.131 31.4623 31.0946 25.1004C31.2601 24.0083 32.1396 23.1075 33.2442 23.1075H33.659C34.7635 23.1075 35.6709 24.0068 35.5467 25.1044C34.7001 32.5868 29.1542 38.6546 21.9443 40.3071C20.9617 40.5323 20.2071 41.3707 20.2071 42.3789V47.5964C20.2071 48.701 19.3117 49.5964 18.2071 49.5964H17.7923Z" fill="white"/>
</svg>
