<svg width="36" height="34" viewBox="0 0 36 34" fill="none" xmlns="http://www.w3.org/2000/svg">
<path d="M26.9995 11.5998H21.5995V0.799805H14.3995V11.5998H8.99953L17.9995 20.5998L26.9995 11.5998ZM34.8079 23.3574C34.4299 22.9542 31.9081 20.256 31.1881 19.5522C30.6836 19.0685 30.0114 18.7989 29.3125 18.7998H26.1499L31.6651 24.189H25.2859C25.1992 24.1874 25.1136 24.2087 25.0378 24.2507C24.962 24.2928 24.8985 24.354 24.8539 24.4284L23.3851 27.7998H12.6139L11.1451 24.4284C11.1002 24.3543 11.0368 24.2932 10.961 24.2512C10.8852 24.2092 10.7998 24.1878 10.7131 24.189H4.33393L9.84733 18.7998H6.68653C5.97193 18.7998 5.28973 19.086 4.81093 19.5522C4.09093 20.2578 1.56913 22.956 1.19113 23.3574C0.310926 24.2952 -0.173274 25.0422 0.0571263 25.9656L1.06693 31.4988C1.29733 32.424 2.31073 33.1836 3.32053 33.1836H32.6821C33.6919 33.1836 34.7053 32.424 34.9357 31.4988L35.9455 25.9656C36.1723 25.0422 35.6899 24.2952 34.8079 23.3574Z" fill="#16193B"/>
</svg>
