<svg width="24" height="24" viewBox="0 0 24 24" fill="none" xmlns="http://www.w3.org/2000/svg">
<path d="M18.9268 4.08489C18.9206 4.07865 18.9134 4.07481 18.9072 4.06881L18.9091 4.06689L18.4473 3.60537L18.442 3.61065C18.3194 3.5125 18.1653 3.4623 18.0084 3.46941C17.8515 3.47652 17.7026 3.54046 17.5893 3.64929L17.5884 3.64833L16.7678 4.46865L16.7733 4.47417C16.6832 4.58866 16.6343 4.73026 16.6348 4.87599C16.6352 5.02172 16.6849 5.16302 16.7757 5.27697L16.7704 5.28225L16.8223 5.33409L17.232 5.74401L17.2394 5.73657C17.2454 5.74281 17.2495 5.75025 17.2555 5.75649C20.7014 9.20241 20.7117 14.8016 17.2886 18.2615L17.284 18.2569L16.8744 18.6666L16.8225 18.7184L16.8278 18.7237C16.7297 18.8463 16.6795 19.0004 16.6866 19.1573C16.6937 19.3141 16.7575 19.4631 16.8662 19.5764L16.8652 19.5774L17.686 20.3982L17.6916 20.3927C17.8061 20.4828 17.9477 20.5316 18.0934 20.5311C18.2392 20.5306 18.3804 20.4809 18.4944 20.39L18.4996 20.3953L18.5515 20.3435L18.9612 19.9338L18.9602 19.9328C23.3047 15.5511 23.2941 8.45241 18.9268 4.08489Z" fill="#469CB7" fill-opacity="0.5"/>
<path d="M16.6499 7.24739C16.6437 7.24115 16.6365 7.23731 16.6302 7.23131L16.6321 7.22939L16.1701 6.76787L16.1649 6.77315C16.0422 6.6751 15.8881 6.62494 15.7312 6.632C15.5743 6.63907 15.4253 6.70287 15.3119 6.81155L15.3109 6.81059L15.3025 6.81899L15.3018 6.81947L15.3013 6.82019L14.5456 7.57571L14.5449 7.57619L14.5444 7.57691L14.4904 7.63091L14.4959 7.63643C14.4057 7.75089 14.3569 7.89247 14.3574 8.03817C14.3579 8.18387 14.4076 8.32512 14.4985 8.43899L14.4933 8.44427L14.9548 8.90603L14.9622 8.89859C14.9682 8.90483 14.9723 8.91227 14.9783 8.91851C16.6801 10.6203 16.69 13.3811 15.0107 15.0976L15.0073 15.0942L14.5977 15.5039H14.5972L14.5456 15.5555L14.5509 15.5607C14.4527 15.6834 14.4025 15.8375 14.4096 15.9945C14.4166 16.1514 14.4805 16.3004 14.5893 16.4137L14.5883 16.4147L15.4091 17.2355L15.4146 17.2299C15.5291 17.3201 15.6707 17.3689 15.8164 17.3684C15.9621 17.3679 16.1033 17.3182 16.2172 17.2273L16.2225 17.2326L16.684 16.7711L16.683 16.7701C19.2841 14.1325 19.2736 9.87131 16.6499 7.24739Z" fill="#469CB7" fill-opacity="0.5"/>
<path d="M2.25391 8.4404V15.5593C2.25391 16.1116 2.70162 16.5593 3.25391 16.5593H5.76298C6.02465 16.5593 6.27589 16.6619 6.4628 16.845L11.4889 21.7691C11.7421 22.0171 12.1688 21.8378 12.1688 21.4834L12.169 2.51633C12.169 2.16194 11.7423 1.98259 11.4891 2.2306L6.46301 7.15472C6.2761 7.33784 6.02486 7.4404 5.76319 7.4404H3.25391C2.70162 7.4404 2.25391 7.88812 2.25391 8.4404Z" fill="#469CB7" fill-opacity="0.5"/>
</svg>
